<svg data-name="Capa 1" xmlns="http://www.w3.org/2000/svg" viewBox="0 0 34.02 34.02"><path d="M17.01 34.02a17 17 0 1 0-17-17 17 17 0 0 0 17 17" fill="#eb5755"/><path d="M17.01 8.46a8.5 8.5 0 0 0-3.41 16.29 6.9 6.9 0 0 1 .15-1.95l1.09-4.64a3.25 3.25 0 0 1-.27-1.34c0-1.26.73-2.2 1.64-2.2a1.14 1.14 0 0 1 1.15 1.27 17.74 17.74 0 0 1-.76 3 1.32 1.32 0 0 0 1.35 1.64c1.61 0 2.69-2.07 2.69-4.52 0-1.86-1.25-3.26-3.54-3.26a4 4 0 0 0-4.18 4.07 2.46 2.46 0 0 0 .56 1.67.41.41 0 0 1 .12.48l-.17.68a.3.3 0 0 1-.43.21 3.28 3.28 0 0 1-1.74-3.25c0-2.41 2-5.31 6.08-5.31a5.08 5.08 0 0 1 5.38 4.87c0 3.34-1.85 5.83-4.59 5.83a2.44 2.44 0 0 1-2.07-1.06l-.6 2.34a7.28 7.28 0 0 1-.86 1.82 8.72 8.72 0 0 0 2.41.35 8.51 8.51 0 1 0 0-17" fill="#fff"/></svg>